[Header]
FileType HTR
DataType HTRS
FileVersion 1
NumSegments 64
NumFrames 4
DataFrameRate 24
EulerRotationOrder ZYX
CalibrationUnits mm
RotationUnits Degrees
GlobalAxisofGravity Y
BoneLengthAxis Y
ScaleFactor 1.0
[SegmentNames&Hierarchy]
Hips	GLOBAL
Spine	Hips
Spine1	Spine
Spine2	Spine1
Neck	Spine2
Head	Neck
LeftEye	Head
RightEye	Head
LeftShoulder	Spine2
LeftArm	LeftShoulder
LeftForeArm	LeftArm
LeftHand	LeftForeArm
LeftHandThumb1	LeftHand
LeftHandThumb2	LeftHandThumb1
LeftHandThumb3	LeftHandThumb2
LeftHandThumb4	LeftHandThumb3
LeftHandIndex1	LeftHand
LeftHandIndex2	LeftHandIndex1
LeftHandIndex3	LeftHandIndex2
LeftHandIndex4	LeftHandIndex3
LeftHandMiddle1	LeftHand
LeftHandMiddle2	LeftHandMiddle1
LeftHandMiddle3	LeftHandMiddle2
LeftHandMiddle4	LeftHandMiddle3
LeftHandRing1	LeftHand
LeftHandRing2	LeftHandRing1
LeftHandRing3	LeftHandRing2
LeftHandRing4	LeftHandRing3
LeftHandPinky1	LeftHand
LeftHandPinky2	LeftHandPinky1
LeftHandPinky3	LeftHandPinky2
LeftHandPinky4	LeftHandPinky3
RightShoulder	Spine2
RightArm	RightShoulder
RightForeArm	RightArm
RightHand	RightForeArm
RightHandPinky1	RightHand
RightHandPinky2	RightHandPinky1
RightHandPinky3	RightHandPinky2
RightHandPinky4	RightHandPinky3
RightHandRing1	RightHand
RightHandRing2	RightHandRing1
RightHandRing3	RightHandRing2
RightHandRing4	RightHandRing3
RightHandMiddle1	RightHand
RightHandMiddle2	RightHandMiddle1
RightHandMiddle3	RightHandMiddle2
RightHandMiddle4	RightHandMiddle3
RightHandIndex1	RightHand
RightHandIndex2	RightHandIndex1
RightHandIndex3	RightHandIndex2
RightHandIndex4	RightHandIndex3
RightHandThumb1	RightHand
RightHandThumb2	RightHandThumb1
RightHandThumb3	RightHandThumb2
RightHandThumb4	RightHandThumb3
LeftUpLeg	Hips
LeftLeg	LeftUpLeg
LeftFoot	LeftLeg
LeftToeBase	LeftFoot
RightUpLeg	Hips
RightLeg	RightUpLeg
RightFoot	RightLeg
RightToeBase	RightFoot
[BasePosition]
Hips	0	0	0	0	0	0	1
Spine	0	0	0	0	0	0	1
Spine1	0	0	0	0	0	0	1
Spine2	0	0	0	0	0	0	1
Neck	0	0	0	0	0	0	1
Head	0	0	0	0	0	0	1
LeftEye	0	0	0	0	0	0	1
RightEye	0	0	0	0	0	0	1
LeftShoulder	0	0	0	0	0	0	1
LeftArm	0	0	0	0	0	0	1
LeftForeArm	0	0	0	0	0	0	1
LeftHand	0	0	0	0	0	0	1
LeftHandThumb1	0	0	0	0	0	0	1
LeftHandThumb2	0	0	0	0	0	0	1
LeftHandThumb3	0	0	0	0	0	0	1
LeftHandThumb4	0	0	0	0	0	0	1
LeftHandIndex1	0	0	0	0	0	0	1
LeftHandIndex2	0	0	0	0	0	0	1
LeftHandIndex3	0	0	0	0	0	0	1
LeftHandIndex4	0	0	0	0	0	0	1
LeftHandMiddle1	0	0	0	0	0	0	1
LeftHandMiddle2	0	0	0	0	0	0	1
LeftHandMiddle3	0	0	0	0	0	0	1
LeftHandMiddle4	0	0	0	0	0	0	1
LeftHandRing1	0	0	0	0	0	0	1
LeftHandRing2	0	0	0	0	0	0	1
LeftHandRing3	0	0	0	0	0	0	1
LeftHandRing4	0	0	0	0	0	0	1
LeftHandPinky1	0	0	0	0	0	0	1
LeftHandPinky2	0	0	0	0	0	0	1
LeftHandPinky3	0	0	0	0	0	0	1
LeftHandPinky4	0	0	0	0	0	0	1
RightShoulder	0	0	0	0	0	0	1
RightArm	0	0	0	0	0	0	1
RightForeArm	0	0	0	0	0	0	1
RightHand	0	0	0	0	0	0	1
RightHandPinky1	0	0	0	0	0	0	1
RightHandPinky2	0	0	0	0	0	0	1
RightHandPinky3	0	0	0	0	0	0	1
RightHandPinky4	0	0	0	0	0	0	1
RightHandRing1	0	0	0	0	0	0	1
RightHandRing2	0	0	0	0	0	0	1
RightHandRing3	0	0	0	0	0	0	1
RightHandRing4	0	0	0	0	0	0	1
RightHandMiddle1	0	0	0	0	0	0	1
RightHandMiddle2	0	0	0	0	0	0	1
RightHandMiddle3	0	0	0	0	0	0	1
RightHandMiddle4	0	0	0	0	0	0	1
RightHandIndex1	0	0	0	0	0	0	1
RightHandIndex2	0	0	0	0	0	0	1
RightHandIndex3	0	0	0	0	0	0	1
RightHandIndex4	0	0	0	0	0	0	1
RightHandThumb1	0	0	0	0	0	0	1
RightHandThumb2	0	0	0	0	0	0	1
RightHandThumb3	0	0	0	0	0	0	1
RightHandThumb4	0	0	0	0	0	0	1
LeftUpLeg	0	0	0	0	0	0	1
LeftLeg	0	0	0	0	0	0	1
LeftFoot	0	0	0	0	0	0	1
LeftToeBase	0	0	0	0	0	0	1
RightUpLeg	0	0	0	0	0	0	1
RightLeg	0	0	0	0	0	0	1
RightFoot	0	0	0	0	0	0	1
RightToeBase	0	0	0	0	0	0	1
[Hips]
63	-4.170605659	1033.505127	20.70145035	-4.051557541	-5.028725624	-3.049876451	1.0
64	-4.379365444	1033.473511	20.7956028	-4.071633339	-4.9454422	-3.047892094	1.0
65	-4.631191254	1033.447632	20.91689873	-4.088992596	-4.859939575	-3.043290615	1.0
66	-4.883451939	1033.437988	21.0834465	-4.105367184	-4.806794167	-3.034513235	1.0
[Spine]
63	0	101.8159943	1.315000057	3.783064842	1.863756418	3.022605896	1.0
64	0	101.8159943	1.315000057	3.782142878	1.873317599	3.023981571	1.0
65	0	101.8159943	1.315000057	3.77841115	1.882267356	3.025264978	1.0
66	0	101.8159943	1.315000057	3.770442724	1.885075331	3.026456594	1.0
[Spine1]
63	0	100.8349991	-10.00800037	1.263352871	0.5132029057	1.631884575	1.0
64	0	100.8349991	-10.00800037	1.262057066	0.5173829794	1.6322999	1.0
65	0	100.8349991	-10.00800037	1.259801626	0.521286726	1.632826447	1.0
66	0	100.8349991	-10.00800037	1.256131291	0.5226106048	1.633596182	1.0
[Spine2]
63	0	91	-13.73399925	1.23824811	0.5360385776	1.633335948	1.0
64	0	91	-13.73399925	1.236951113	0.5402231812	1.63371563	1.0
65	0	91	-13.73399925	1.234692335	0.5441344976	1.634210706	1.0
66	0	91	-13.73399925	1.231018186	0.5454683304	1.634967804	1.0
[Neck]
63	0	166.7169952	-25.16200066	5.858537674	-0.2744128406	0.3241926432	1.0
64	0	166.7169952	-25.16200066	5.851173401	-0.2773758471	0.3280861974	1.0
65	0	166.7169952	-25.16200066	5.8440485	-0.2805655897	0.3328015208	1.0
66	0	166.7169952	-25.16200066	5.845842838	-0.2828787267	0.3366425931	1.0
[Head]
63	0	96.17900085	16.84999847	-8.608178139	0.7516174316	-0.2452321649	1.0
64	0	96.17900085	16.84999847	-8.664794922	0.7486490011	-0.2463602275	1.0
65	0	96.17900085	16.84999847	-8.714711189	0.7455396652	-0.2472322136	1.0
66	0	96.17900085	16.84999847	-8.728273392	0.7419667244	-0.2470026761	1.0
[LeftEye]
63	30.6760006	64.09500122	92.83599854	0	0	0	1.0
64	30.6760006	64.09500122	92.83599854	0	0	0	1.0
65	30.6760006	64.09500122	92.83599854	0	0	0	1.0
66	30.6760006	64.09500122	92.83599854	0	0	0	1.0
[RightEye]
63	-30.6760006	64.09500122	92.83499908	0	0	0	1.0
64	-30.6760006	64.09500122	92.83499908	0	0	0	1.0
65	-30.6760006	64.09500122	92.83499908	0	0	0	1.0
66	-30.6760006	64.09500122	92.83499908	0	0	0	1.0
[LeftShoulder]
63	45.70400238	109.4599991	-26.28000069	4.974573135	-16.84416199	-13.56024456	1.0
64	45.70400238	109.4599991	-26.28000069	4.973299026	-16.83611679	-13.55658531	1.0
65	45.70400238	109.4599991	-26.28000069	4.971175194	-16.82533073	-13.54938412	1.0
66	45.70400238	109.4599991	-26.28000069	4.967643261	-16.81192589	-13.53554344	1.0
[LeftArm]
63	105.923996	-5.24600029	-22.32099915	19.80485725	-3.698801279	-70.94039917	1.0
64	105.923996	-5.24600029	-22.32099915	19.80509949	-3.712170124	-70.94621277	1.0
65	105.923996	-5.24600029	-22.32099915	19.80672836	-3.724165916	-70.95681	1.0
66	105.923996	-5.24600029	-22.32099915	19.80780792	-3.728130102	-70.97623444	1.0
[LeftForeArm]
63	278.414978	-0.0009999999311	0	-4.983317467e-06	-1.496902704	-0.0001806036453	1.0
64	278.414978	-0.0009999999311	0	-4.797722795e-06	-1.499604702	-0.0001882820507	1.0
65	278.414978	-0.0009999999311	0	-4.536147571e-06	-1.501034379	-0.0001965811243	1.0
66	278.414978	-0.0009999999311	0	-4.153888312e-06	-1.499037027	-0.0002015951759	1.0
[LeftHand]
63	283.2879944	0	0	-32.91108322	-4.568929672	-4.145153999	1.0
64	283.2879944	0	0	-32.92094421	-4.572604179	-4.137984753	1.0
65	283.2879944	0	0	-32.93055344	-4.575144768	-4.131392002	1.0
66	283.2879944	0	0	-32.93551254	-4.572237492	-4.131178379	1.0
[LeftHandThumb1]
63	24.6609993	-15.75	26.8239994	-0.4889889657	2.201390743	4.818541527	1.0
64	24.6609993	-15.75	26.8239994	-0.4889889657	2.201390743	4.818541527	1.0
65	24.6609993	-15.75	26.8239994	-0.4889889657	2.201390743	4.818541527	1.0
66	24.6609993	-15.75	26.8239994	-0.4889889657	2.201390743	4.818541527	1.0
[LeftHandThumb2]
63	32.29800034	-18.64699936	18.64699936	19.88581276	19.96446037	23.26738167	1.0
64	32.29800034	-18.64699936	18.64699936	19.88581276	19.96446037	23.26738167	1.0
65	32.29800034	-18.64699936	18.64699936	19.88581276	19.96446037	23.26738167	1.0
66	32.29800034	-18.64699936	18.64699936	19.88581276	19.96446037	23.26738167	1.0
[LeftHandThumb3]
63	26.52600098	-15.31499958	15.31499958	-13.14535904	5.551738262	7.967928886	1.0
64	26.52600098	-15.31499958	15.31499958	-13.14535904	5.551738262	7.967928886	1.0
65	26.52600098	-15.31499958	15.31499958	-13.14535904	5.551738262	7.967928886	1.0
66	26.52600098	-15.31499958	15.31499958	-13.14535904	5.551738262	7.967928886	1.0
[LeftHandThumb4]
63	19.54599953	-11.28499985	11.28499985	0	0	0	1.0
64	19.54599953	-11.28499985	11.28499985	0	0	0	1.0
65	19.54599953	-11.28499985	11.28499985	0	0	0	1.0
66	19.54599953	-11.28499985	11.28499985	0	0	0	1.0
[LeftHandIndex1]
63	91.09299469	-5.170999527	22.60099792	0.1480516791	-0.9618676901	-7.594518185	1.0
64	91.09299469	-5.170999527	22.60099792	0.1480516791	-0.9618676901	-7.594518185	1.0
65	91.09299469	-5.170999527	22.60099792	0.1480516791	-0.9618676901	-7.594518185	1.0
66	91.09299469	-5.170999527	22.60099792	0.1480516791	-0.9618676901	-7.594518185	1.0
[LeftHandIndex2]
63	36.76399994	0	0	-0.2667043209	1.745171905	-17.37646866	1.0
64	36.76399994	0	0	-0.2667043209	1.745171905	-17.37646866	1.0
65	36.76399994	0	0	-0.2667043209	1.745171905	-17.37646866	1.0
66	36.76399994	0	0	-0.2667043209	1.745171905	-17.37646866	1.0
[LeftHandIndex3]
63	28.83100128	0	0	-0.05742863193	0.817338407	-8.038370132	1.0
64	28.83100128	0	0	-0.05742863193	0.817338407	-8.038370132	1.0
65	28.83100128	0	0	-0.05742863193	0.817338407	-8.038370132	1.0
66	28.83100128	0	0	-0.05742863193	0.817338407	-8.038370132	1.0
[LeftHandIndex4]
63	23.92700005	0	0	0	0	0	1.0
64	23.92700005	0	0	0	0	0	1.0
65	23.92700005	0	0	0	0	0	1.0
66	23.92700005	0	0	0	0	0	1.0
[LeftHandMiddle1]
63	95.33399963	0	0	-0.7942916155	2.538622379	-15.71737862	1.0
64	95.33399963	0	0	-0.7942916155	2.538622379	-15.71737862	1.0
65	95.33399963	0	0	-0.7942916155	2.538622379	-15.71737862	1.0
66	95.33399963	0	0	-0.7942916155	2.538622379	-15.71737862	1.0
[LeftHandMiddle2]
63	36.98199844	0	0	-0.267610997	1.748071074	-17.40625954	1.0
64	36.98199844	0	0	-0.267610997	1.748071074	-17.40625954	1.0
65	36.98199844	0	0	-0.267610997	1.748071074	-17.40625954	1.0
66	36.98199844	0	0	-0.267610997	1.748071074	-17.40625954	1.0
[LeftHandMiddle3]
63	29.50900078	0	0	-0.2992140949	1.84580946	-18.41413307	1.0
64	29.50900078	0	0	-0.2992140949	1.84580946	-18.41413307	1.0
65	29.50900078	0	0	-0.2992140949	1.84580946	-18.41413307	1.0
66	29.50900078	0	0	-0.2992140949	1.84580946	-18.41413307	1.0
[LeftHandMiddle4]
63	28.3390007	0	0	0	0	0	1.0
64	28.3390007	0	0	0	0	0	1.0
65	28.3390007	0	0	0	0	0	1.0
66	28.3390007	0	0	0	0	0	1.0
[LeftHandRing1]
63	91.04499817	-0.4390000105	-18.65100098	-1.184956431	3.436642885	-21.16632462	1.0
64	91.04499817	-0.4390000105	-18.65100098	-1.184956431	3.436642885	-21.16632462	1.0
65	91.04499817	-0.4390000105	-18.65100098	-1.184956431	3.436642885	-21.16632462	1.0
66	91.04499817	-0.4390000105	-18.65100098	-1.184956431	3.436642885	-21.16632462	1.0
[LeftHandRing2]
63	31.54000092	0	0	-0.3849357069	2.085560799	-20.91281319	1.0
64	31.54000092	0	0	-0.3849357069	2.085560799	-20.91281319	1.0
65	31.54000092	0	0	-0.3849357069	2.085560799	-20.91281319	1.0
66	31.54000092	0	0	-0.3849357069	2.085560799	-20.91281319	1.0
[LeftHandRing3]
63	29.37700081	0	0	-0.2818065584	1.792707562	-17.86576271	1.0
64	29.37700081	0	0	-0.2818065584	1.792707562	-17.86576271	1.0
65	29.37700081	0	0	-0.2818065584	1.792707562	-17.86576271	1.0
66	29.37700081	0	0	-0.2818065584	1.792707562	-17.86576271	1.0
[LeftHandRing4]
63	26.47500038	0	0	0	0	0	1.0
64	26.47500038	0	0	0	0	0	1.0
65	26.47500038	0	0	0	0	0	1.0
66	26.47500038	0	0	0	0	0	1.0
[LeftHandPinky1]
63	80.77799988	-4.887000084	-38.06099701	-1.708467126	5.355370045	-27.1653862	1.0
64	80.77799988	-4.887000084	-38.06099701	-1.708467126	5.355370045	-27.1653862	1.0
65	80.77799988	-4.887000084	-38.06099701	-1.708467126	5.355370045	-27.1653862	1.0
66	80.77799988	-4.887000084	-38.06099701	-1.708467126	5.355370045	-27.1653862	1.0
[LeftHandPinky2]
63	36	0	0	-0.2676221728	1.748113751	-17.40663528	1.0
64	36	0	0	-0.2676221728	1.748113751	-17.40663528	1.0
65	36	0	0	-0.2676221728	1.748113751	-17.40663528	1.0
66	36	0	0	-0.2676221728	1.748113751	-17.40663528	1.0
[LeftHandPinky3]
63	21.14200211	0	0	-0.2408525199	1.660349369	-16.50663185	1.0
64	21.14200211	0	0	-0.2408525199	1.660349369	-16.50663185	1.0
65	21.14200211	0	0	-0.2408525199	1.660349369	-16.50663185	1.0
66	21.14200211	0	0	-0.2408525199	1.660349369	-16.50663185	1.0
[LeftHandPinky4]
63	19.75699997	0	0	0	0	0	1.0
64	19.75699997	0	0	0	0	0	1.0
65	19.75699997	0	0	0	0	0	1.0
66	19.75699997	0	0	0	0	0	1.0
[RightShoulder]
63	-45.70000076	109.4620056	-26.28000069	5.317162514	15.05834579	16.02477455	1.0
64	-45.70000076	109.4620056	-26.28000069	5.317298889	15.0612793	16.02410507	1.0
65	-45.70000076	109.4620056	-26.28000069	5.316821098	15.06344128	16.02022171	1.0
66	-45.70000076	109.4620056	-26.28000069	5.314881802	15.05987263	16.01085281	1.0
[RightArm]
63	-105.9280014	-5.248000145	-22.32099915	30.10720253	1.691229343	62.36330414	1.0
64	-105.9280014	-5.248000145	-22.32099915	30.1023674	1.694025755	62.36874771	1.0
65	-105.9280014	-5.248000145	-22.32099915	30.09946442	1.699996233	62.37631226	1.0
66	-105.9280014	-5.248000145	-22.32099915	30.09630203	1.70610857	62.38668823	1.0
[RightForeArm]
63	-278.414978	0	0	9.20392381e-07	6.715450764	1.379430978e-05	1.0
64	-278.414978	0	0	-1.200754809e-06	6.710884094	-3.702095455e-06	1.0
65	-278.414978	0	0	-3.483777618e-06	6.705849648	-2.127759035e-05	1.0
66	-278.414978	0	0	-4.856134183e-06	6.701524258	-3.037208262e-05	1.0
[RightHand]
63	-283.2879944	0	0.0009999999311	-20.32326889	1.482604384	6.105565071	1.0
64	-283.2879944	0	0.0009999999311	-20.30553055	1.481037855	6.135659695	1.0
65	-283.2879944	0	0.0009999999311	-20.28837013	1.483019471	6.168027878	1.0
66	-283.2879944	0	0.0009999999311	-20.27803993	1.489574552	6.18956995	1.0
[RightHandPinky1]
63	-80.76699829	-4.885000229	-38.06000137	-1.507175922	-4.696118355	26.50587463	1.0
64	-80.76699829	-4.885000229	-38.06000137	-1.507175922	-4.696118355	26.50587463	1.0
65	-80.76699829	-4.885000229	-38.06000137	-1.507175922	-4.696118355	26.50587463	1.0
66	-80.76699829	-4.885000229	-38.06000137	-1.507175922	-4.696118355	26.50587463	1.0
[RightHandPinky2]
63	-36	0	0.0009999999311	-0.2127676606	-1.388874292	17.43785858	1.0
64	-36	0	0.0009999999311	-0.2127676606	-1.388874292	17.43785858	1.0
65	-36	0	0.0009999999311	-0.2127676606	-1.388874292	17.43785858	1.0
66	-36	0	0.0009999999311	-0.2127676606	-1.388874292	17.43785858	1.0
[RightHandPinky3]
63	-21.14200211	0	0	-0.1919144988	-1.32059598	16.53641129	1.0
64	-21.14200211	0	0	-0.1919144988	-1.32059598	16.53641129	1.0
65	-21.14200211	0	0	-0.1919144988	-1.32059598	16.53641129	1.0
66	-21.14200211	0	0	-0.1919144988	-1.32059598	16.53641129	1.0
[RightHandPinky4]
63	-19.75699997	0	0	0	0	0	1.0
64	-19.75699997	0	0	0	0	0	1.0
65	-19.75699997	0	0	0	0	0	1.0
66	-19.75699997	0	0	0	0	0	1.0
[RightHandRing1]
63	-91.03599548	-0.4390000105	-18.65100098	-1.045235753	-2.883111477	20.47788429	1.0
64	-91.03599548	-0.4390000105	-18.65100098	-1.045235753	-2.883111477	20.47788429	1.0
65	-91.03599548	-0.4390000105	-18.65100098	-1.045235753	-2.883111477	20.47788429	1.0
66	-91.03599548	-0.4390000105	-18.65100098	-1.045235753	-2.883111477	20.47788429	1.0
[RightHandRing2]
63	-31.54000092	0	0	-0.3066971898	-1.658752441	20.94926834	1.0
64	-31.54000092	0	0	-0.3066971898	-1.658752441	20.94926834	1.0
65	-31.54000092	0	0	-0.3066971898	-1.658752441	20.94926834	1.0
66	-31.54000092	0	0	-0.3066971898	-1.658752441	20.94926834	1.0
[RightHandRing3]
63	-29.37700081	0	0	-0.2245407403	-1.425854325	17.89771652	1.0
64	-29.37700081	0	0	-0.2245407403	-1.425854325	17.89771652	1.0
65	-29.37700081	0	0	-0.2245407403	-1.425854325	17.89771652	1.0
66	-29.37700081	0	0	-0.2245407403	-1.425854325	17.89771652	1.0
[RightHandRing4]
63	-26.47500038	0	0	0	0	0	1.0
64	-26.47500038	0	0	0	0	0	1.0
65	-26.47500038	0	0	0	0	0	1.0
66	-26.47500038	0	0	0	0	0	1.0
[RightHandMiddle1]
63	-95.32500458	0	0	-0.7017197609	-2.087752104	15.0152874	1.0
64	-95.32500458	0	0	-0.7017197609	-2.087752104	15.0152874	1.0
65	-95.32500458	0	0	-0.7017197609	-2.087752104	15.0152874	1.0
66	-95.32500458	0	0	-0.7017197609	-2.087752104	15.0152874	1.0
[RightHandMiddle2]
63	-36.98199844	0	0	-0.213228479	-1.390354872	17.43750381	1.0
64	-36.98199844	0	0	-0.213228479	-1.390354872	17.43750381	1.0
65	-36.98199844	0	0	-0.213228479	-1.390354872	17.43750381	1.0
66	-36.98199844	0	0	-0.213228479	-1.390354872	17.43750381	1.0
[RightHandMiddle3]
63	-29.50900078	0	0	-0.2384106964	-1.470119596	18.44692802	1.0
64	-29.50900078	0	0	-0.2384106964	-1.470119596	18.44692802	1.0
65	-29.50900078	0	0	-0.2384106964	-1.470119596	18.44692802	1.0
66	-29.50900078	0	0	-0.2384106964	-1.470119596	18.44692802	1.0
[RightHandMiddle4]
63	-28.3390007	0	0.0009999999311	0	0	0	1.0
64	-28.3390007	0	0.0009999999311	0	0	0	1.0
65	-28.3390007	0	0.0009999999311	0	0	0	1.0
66	-28.3390007	0	0.0009999999311	0	0	0	1.0
[RightHandIndex1]
63	-91.08300018	-5.167999744	22.60099792	0.1884763837	1.25192976	6.825599194	1.0
64	-91.08300018	-5.167999744	22.60099792	0.1884763837	1.25192976	6.825599194	1.0
65	-91.08300018	-5.167999744	22.60099792	0.1884763837	1.25192976	6.825599194	1.0
66	-91.08300018	-5.167999744	22.60099792	0.1884763837	1.25192976	6.825599194	1.0
[RightHandIndex2]
63	-36.76399994	0	0	-0.2125098109	-1.388050556	17.40767097	1.0
64	-36.76399994	0	0	-0.2125098109	-1.388050556	17.40767097	1.0
65	-36.76399994	0	0	-0.2125098109	-1.388050556	17.40767097	1.0
66	-36.76399994	0	0	-0.2125098109	-1.388050556	17.40767097	1.0
[RightHandIndex3]
63	-28.83100128	0	0	-0.04576345533	-0.650116384	8.053516388	1.0
64	-28.83100128	0	0	-0.04576345533	-0.650116384	8.053516388	1.0
65	-28.83100128	0	0	-0.04576345533	-0.650116384	8.053516388	1.0
66	-28.83100128	0	0	-0.04576345533	-0.650116384	8.053516388	1.0
[RightHandIndex4]
63	-23.92700005	0	0	0	0	0	1.0
64	-23.92700005	0	0	0	0	0	1.0
65	-23.92700005	0	0	0	0	0	1.0
66	-23.92700005	0	0	0	0	0	1.0
[RightHandThumb1]
63	-24.64799881	-15.72700024	26.82600021	-1.658462524	-0.2891407609	-4.221328735	1.0
64	-24.64799881	-15.72700024	26.82600021	-1.658462524	-0.2891407609	-4.221328735	1.0
65	-24.64799881	-15.72700024	26.82600021	-1.658462524	-0.2891407609	-4.221328735	1.0
66	-24.64799881	-15.72700024	26.82600021	-1.658462524	-0.2891407609	-4.221328735	1.0
[RightHandThumb2]
63	-32.29800034	-18.64699936	18.64699936	22.25259209	-23.88967514	-24.282444	1.0
64	-32.29800034	-18.64699936	18.64699936	22.25259209	-23.88967514	-24.282444	1.0
65	-32.29800034	-18.64699936	18.64699936	22.25259209	-23.88967514	-24.282444	1.0
66	-32.29800034	-18.64699936	18.64699936	22.25259209	-23.88967514	-24.282444	1.0
[RightHandThumb3]
63	-26.52600098	-15.31399918	15.31399918	-14.47830296	-6.743862152	-11.36570263	1.0
64	-26.52600098	-15.31399918	15.31399918	-14.47830296	-6.743862152	-11.36570263	1.0
65	-26.52600098	-15.31399918	15.31399918	-14.47830296	-6.743862152	-11.36570263	1.0
66	-26.52600098	-15.31399918	15.31399918	-14.47830296	-6.743862152	-11.36570263	1.0
[RightHandThumb4]
63	-19.54599953	-11.28499985	11.28499985	0	0	0	1.0
64	-19.54599953	-11.28499985	11.28499985	0	0	0	1.0
65	-19.54599953	-11.28499985	11.28499985	0	0	0	1.0
66	-19.54599953	-11.28499985	11.28499985	0	0	0	1.0
[LeftUpLeg]
63	82.07800293	-67.51699829	-15.99599934	-7.416060448	16.50796318	7.87087822	1.0
64	82.07800293	-67.51699829	-15.99599934	-7.413976192	16.50852203	7.877781868	1.0
65	82.07800293	-67.51699829	-15.99599934	-7.408550739	16.50652695	7.883041382	1.0
66	82.07800293	-67.51699829	-15.99599934	-7.387308121	16.50287437	7.886869907	1.0
[LeftLeg]
63	0	-443.7049866	2.845999956	12.3814106	0.3018943369	4.382256508	1.0
64	0	-443.7049866	2.845999956	12.38851452	0.2168258727	4.363351345	1.0
65	0	-443.7049866	2.845999956	12.3849926	0.1324899942	4.345765591	1.0
66	0	-443.7049866	2.845999956	12.37025642	0.080439955	4.338380337	1.0
[LeftFoot]
63	0	-444.2789917	-29.8219986	0.9433996677	0.6809159517	-7.27883482	1.0
64	0	-444.2789917	-29.8219986	0.9416486025	0.6813797355	-7.283203125	1.0
65	0	-444.2789917	-29.8219986	0.9456214309	0.682140708	-7.289028168	1.0
66	0	-444.2789917	-29.8219986	0.95237571	0.6831012368	-7.295946598	1.0
[LeftToeBase]
63	0	-87.28699493	107.1060028	-4.918259144	5.284409781e-06	-2.644005008e-06	1.0
64	0	-87.28699493	107.1060028	-4.915591717	4.663269465e-06	-7.78450385e-07	1.0
65	0	-87.28699493	107.1060028	-4.912587166	3.368788839e-06	1.274942861e-06	1.0
66	0	-87.28699493	107.1060028	-4.909303665	1.683557457e-06	2.646782377e-06	1.0
[RightUpLeg]
63	-82.07800293	-67.51699829	-15.99599934	0.6584768295	-10.65003395	3.221580982	1.0
64	-82.07800293	-67.51699829	-15.99599934	0.6767125726	-10.65756893	3.229603052	1.0
65	-82.07800293	-67.51699829	-15.99599934	0.6963458061	-10.6656189	3.237238646	1.0
66	-82.07800293	-67.51699829	-15.99599934	0.7216793299	-10.67382336	3.238487005	1.0
[RightLeg]
63	0	-443.7049866	2.861999989	8.935712814	-9.171360016	-4.800693989	1.0
64	0	-443.7049866	2.861999989	8.965200424	-9.171803474	-4.803462029	1.0
65	0	-443.7049866	2.861999989	8.98982048	-9.172962189	-4.804580212	1.0
66	0	-443.7049866	2.861999989	9.003082275	-9.174203873	-4.804242134	1.0
[RightFoot]
63	0	-444.2770081	-29.83799934	-4.810756683	-1.635904074	3.357703209	1.0
64	0	-444.2770081	-29.83799934	-4.846908569	-1.709138155	3.356035471	1.0
65	0	-444.2770081	-29.83799934	-4.883462906	-1.783759356	3.35196805	1.0
66	0	-444.2770081	-29.83799934	-4.913371086	-1.828211069	3.346407413	1.0
[RightToeBase]
63	0	-87.28699493	107.1060028	-7.233863354	8.157126103e-06	-1.735527803e-06	1.0
64	0	-87.28699493	107.1060028	-7.249148369	3.342298896e-06	-7.489725817e-07	1.0
65	0	-87.28699493	107.1060028	-7.264096737	-1.235039122e-06	2.711029765e-07	1.0
66	0	-87.28699493	107.1060028	-7.270729065	-2.9897069e-06	7.936889688e-07	1.0
[EndOfFile]
